<?xml version="1.0" encoding="UTF-8" standalone="no"?>
<svg
   xmlns:dc="http://purl.org/dc/elements/1.1/"
   xmlns:cc="http://creativecommons.org/ns#"
   xmlns:rdf="http://www.w3.org/1999/02/22-rdf-syntax-ns#"
   xmlns:svg="http://www.w3.org/2000/svg"
   xmlns="http://www.w3.org/2000/svg"
   version="1.1"
   id="svg3429"
   viewBox="0 0 381.03516 36.132814"
   height="10.197483mm"
   width="107.53659mm">
  <defs
     id="defs3431" />
  <metadata
     id="metadata3434">
    <rdf:RDF>
      <cc:Work
         rdf:about="">
        <dc:format>image/svg+xml</dc:format>
        <dc:type
           rdf:resource="http://purl.org/dc/dcmitype/StillImage" />
        <dc:title></dc:title>
      </cc:Work>
    </rdf:RDF>
  </metadata>
  <g
     transform="translate(-37.195312,-87.533615)"
     id="layer1">
    <g id="flowRoot3437">
      <path
         id="path3446"
         d="m 37.195312,114.19377 0.410157,-6.42578 0.566406,-16.757812 q 0.01953,-0.957031 0.01953,-1.875 l -0.01953,-1.601563 4.042969,0.01953 4.238281,-0.01953 q 2.011719,0 3.027344,0.175782 1.035156,0.175781 1.875,0.625 0.859375,0.449218 1.523437,1.210937 0.664063,0.761719 0.996094,1.816406 0.351562,1.054688 0.351562,2.207032 0,0.957031 -0.234375,1.855468 -0.214843,0.878907 -0.703125,1.679688 -0.488281,0.800781 -1.152343,1.425781 -0.644532,0.605469 -1.269532,0.957031 -0.605468,0.351563 -1.601562,0.76172 0.996094,0.3125 1.582031,0.56641 0.605469,0.2539 1.210938,0.64453 0.605468,0.39062 1.074218,0.91797 0.488282,0.52734 0.820313,1.1914 0.332031,0.64453 0.527344,1.48438 0.195312,0.82031 0.195312,1.71875 0,1.8164 -0.742187,3.32031 -0.722657,1.48437 -2.1875,2.5 -1.445313,1.01562 -3.105469,1.30859 Q 47,114.19377 45.007812,114.19377 l -4.726562,-0.0195 -3.085938,0.0195 z m 2.226563,-14.433592 3.847656,0 q 3.027344,0 4.042969,-0.15625 1.308594,-0.214844 2.5,-0.820313 0.800781,-0.429687 1.484375,-1.230468 0.683594,-0.800782 1.074219,-1.875 0.390625,-1.09375 0.390625,-2.265625 0,-1.132813 -0.390625,-1.992188 Q 52,90.541428 51.257812,89.916428 q -0.722656,-0.625 -1.699218,-0.898438 -0.957032,-0.273437 -3.007813,-0.273437 l -6.738281,0 -0.390625,11.015625 z m -0.488281,13.203122 5.664062,0 q 2.675781,0 3.886719,-0.3125 1.210937,-0.3125 2.304687,-1.01562 1.09375,-0.72266 1.738282,-2.08985 0.664062,-1.38671 0.664062,-2.91015 0,-1.46485 -0.605469,-2.59766 -0.605468,-1.15234 -1.679687,-1.875 -1.074219,-0.74219 -2.304688,-0.95703 -1.230468,-0.21484 -2.910156,-0.21484 l -6.347656,0 -0.410156,11.97265 z" />
      <path
         id="path3448"
         d="m 76.042969,114.19377 q -0.390625,-0.0195 -0.722657,-0.0195 -0.332031,0 -0.722656,0.0195 l 0.15625,-4.23828 q -0.449219,0.99609 -0.742187,1.44531 -0.273438,0.42969 -0.722657,0.91797 -0.449218,0.48828 -1.132812,0.9375 -0.664063,0.42969 -1.582031,0.74219 -0.917969,0.3125 -1.894532,0.44922 -0.957031,0.13672 -1.933593,0.13672 -1.679688,0 -3.144532,-0.3711 -1.445312,-0.37109 -2.578125,-1.28906 -1.113281,-0.91797 -1.523437,-2.12891 -0.410156,-1.23046 -0.410156,-2.77343 0,-1.19141 0.253906,-5.87891 0.273437,-4.707031 0.273437,-7.675781 0.507813,0.01953 0.761719,0.01953 0.253906,0 0.761719,-0.01953 -0.15625,1.679688 -0.46875,6.972661 -0.292969,5.29296 -0.292969,6.62109 0,1.48437 0.390625,2.51953 0.390625,1.03516 1.347656,1.71875 0.976563,0.66406 2.1875,0.9375 1.230469,0.27344 2.519532,0.27344 1.347656,0 2.578125,-0.33203 1.25,-0.35157 2.070312,-0.85938 0.820313,-0.50781 1.445313,-1.25 0.722656,-0.85937 1.230468,-1.99219 0.449219,-0.99609 0.664063,-2.46093 0.214844,-1.48438 0.371094,-5.35157 0.136718,-3.710933 0.15625,-6.796871 0.527343,0.01953 0.78125,0.01953 0.253906,0 0.761718,-0.01953 l -0.722656,13.671871 -0.07813,2.94922 q -0.03906,1.81641 -0.03906,3.10547 z" />
      <path
         id="path3450"
         d="m 80.457031,113.82268 q -0.03906,-0.9375 -0.15625,-1.66016 1.542969,0.6836 2.910156,0.95703 1.367188,0.27344 2.5,0.27344 1.503907,0 2.558594,-0.42969 1.074219,-0.42968 1.621094,-1.26953 0.546875,-0.83984 0.546875,-1.75781 0,-0.41016 -0.09766,-0.78125 -0.07813,-0.39063 -0.273438,-0.76172 -0.195312,-0.39062 -0.449219,-0.70312 -0.234375,-0.33204 -0.683593,-0.74219 -0.429688,-0.41016 -1.015625,-0.91797 -0.585938,-0.50781 -1.835938,-1.54297 -1.25,-1.03516 -2.070312,-1.77734 -0.800782,-0.76172 -1.347657,-1.52344 -0.527343,-0.78125 -0.761718,-1.425782 -0.214844,-0.644531 -0.214844,-1.308594 0,-1.132812 0.703125,-2.1875 0.722656,-1.074219 2.050781,-1.640625 1.347656,-0.566406 3.398438,-0.566406 1.71875,0 3.867187,0.449219 0.01953,0.859375 0.117188,1.660156 -1.25,-0.527344 -2.246094,-0.703125 -0.976563,-0.195313 -1.992188,-0.195313 -1.269531,0 -2.34375,0.390625 -1.074218,0.371094 -1.621093,1.113282 -0.527344,0.722656 -0.527344,1.582031 0,0.46875 0.117187,0.878906 0.117188,0.410156 0.371094,0.839846 0.253906,0.41015 0.644531,0.85937 0.410157,0.42969 1.035157,1.01563 0.644531,0.5664 1.835937,1.58203 1.210938,0.99609 1.796875,1.52344 0.585938,0.50781 0.996094,0.9375 0.429687,0.42968 0.800781,0.95703 0.390625,0.50781 0.625,0.99609 0.234375,0.48828 0.351563,0.9961 0.117187,0.48828 0.117187,0.99609 0,1.23047 -0.722656,2.32422 -0.722656,1.09375 -2.109375,1.71875 -1.367188,0.625 -3.300781,0.625 -0.722657,0 -1.816407,-0.11719 -1.074218,-0.11719 -1.738281,-0.25391 -0.644531,-0.11718 -1.640625,-0.41015 z" />
      <path
         id="path3452"
         d="m 96.980469,89.467209 0.05859,-1.933594 q 0.488282,0.01953 0.996094,0.01953 0.507813,0 0.996094,-0.01953 l -0.05859,1.933594 q -0.488281,-0.03906 -0.996094,-0.03906 -0.507812,0 -0.996093,0.03906 z m -0.703125,24.726561 q 0.214843,-2.92969 0.488281,-10.21484 0.292969,-7.285158 0.292969,-9.511721 0.507812,0.01953 0.78125,0.01953 0.292968,0 0.800781,-0.01953 -0.273438,3.710938 -0.546875,10.117191 -0.253906,6.40625 -0.253906,9.60937 -0.507813,-0.0195 -0.78125,-0.0195 -0.273438,0 -0.78125,0.0195 z" />
      <path
         id="path3454"
         d="m 103.50391,114.19377 0.66406,-11.93359 0.17578,-5.605471 q 0.0391,-1.503906 0.0391,-2.1875 0.50782,0.01953 0.76172,0.01953 0.23438,0 0.74219,-0.01953 l -0.25391,4.453125 q 0.42969,-0.917969 0.70313,-1.386719 0.29297,-0.488281 0.78125,-1.035156 0.48828,-0.546875 1.15234,-1.015625 0.6836,-0.488281 1.6211,-0.800781 0.95703,-0.332031 1.95312,-0.46875 0.99609,-0.15625 1.97266,-0.15625 1.64062,0 3.18359,0.371094 1.54297,0.371093 2.55859,1.289062 1.01563,0.898438 1.38672,2.089844 0.39063,1.171875 0.39063,2.519527 0,0.60547 -0.0586,1.79688 l -0.41015,8.88672 -0.0781,3.18359 q -0.39062,-0.0195 -0.76172,-0.0195 -0.37109,0 -0.74218,0.0195 0.19531,-2.4414 0.3125,-4.66797 l 0.27343,-5 q 0.15625,-2.77343 0.15625,-4.0039 0,-1.289066 -0.37109,-2.304691 -0.37109,-1.015625 -1.28906,-1.679687 -0.89844,-0.683594 -2.14844,-0.976563 -1.25,-0.3125 -2.57812,-0.3125 -1.85547,0 -3.28125,0.507813 -1.34766,0.488281 -2.36329,1.445312 -1.01562,0.9375 -1.66015,2.382813 -0.48828,1.054683 -0.74219,2.949223 -0.23437,1.64062 -0.39062,5.37109 -0.13672,3.71094 -0.13672,6.28906 -0.50782,-0.0195 -0.78125,-0.0195 -0.27344,0 -0.78125,0.0195 z" />
      <path
         id="path3456"
         d="m 141.12109,112.29924 q -0.15625,0.72266 -0.23437,1.46484 -1.6211,0.46875 -2.91016,0.64454 -1.28906,0.19531 -2.63672,0.19531 -2.34375,0 -4.16015,-0.625 -1.79688,-0.64453 -3.08594,-2.10938 -1.28906,-1.48437 -1.83594,-3.32031 -0.54687,-1.83594 -0.54687,-3.90625 0,-2.71484 0.9375,-5.078125 0.9375,-2.382812 3.08593,-3.945312 2.14844,-1.5625 5.33204,-1.5625 2.1875,0 3.96484,0.820312 1.77734,0.800782 2.75391,2.636719 0.99609,1.835938 0.99609,4.355466 0,0.46875 -0.0391,0.89844 l -15.44922,0.0195 q -0.0977,1.26953 -0.0977,1.91406 0,1.85547 0.54688,3.59375 0.54687,1.73829 1.64062,2.91016 1.11328,1.17188 2.65625,1.73828 1.54297,0.56641 3.26172,0.56641 2.61719,0 5.82031,-1.21094 z m -13.65234,-10.58594 13.88672,0.0195 q -0.0195,-1.34765 -0.15625,-2.070308 -0.13672,-0.722657 -0.50781,-1.484375 -0.3711,-0.761719 -0.89844,-1.308594 -0.50781,-0.566406 -1.21094,-0.9375 -0.68359,-0.390625 -1.54297,-0.585938 -0.85937,-0.195312 -1.79687,-0.195312 -1.03516,0 -2.03125,0.234375 -0.9961,0.234375 -1.81641,0.644531 -0.82031,0.410156 -1.54297,1.054688 -0.70312,0.625 -1.17187,1.367187 -0.44922,0.742188 -0.70313,1.425781 -0.23437,0.664065 -0.50781,1.835935 z" />
      <path
         id="path3458"
         d="m 145.22266,113.82268 q -0.0391,-0.9375 -0.15625,-1.66016 1.54296,0.6836 2.91015,0.95703 1.36719,0.27344 2.5,0.27344 1.50391,0 2.5586,-0.42969 1.07421,-0.42968 1.62109,-1.26953 0.54687,-0.83984 0.54687,-1.75781 0,-0.41016 -0.0977,-0.78125 -0.0781,-0.39063 -0.27344,-0.76172 -0.19531,-0.39062 -0.44922,-0.70312 -0.23437,-0.33204 -0.68359,-0.74219 -0.42969,-0.41016 -1.01563,-0.91797 -0.58593,-0.50781 -1.83593,-1.54297 -1.25,-1.03516 -2.07032,-1.77734 -0.80078,-0.76172 -1.34765,-1.52344 -0.52735,-0.78125 -0.76172,-1.425782 -0.21485,-0.644531 -0.21485,-1.308594 0,-1.132812 0.70313,-2.1875 0.72266,-1.074219 2.05078,-1.640625 1.34766,-0.566406 3.39844,-0.566406 1.71875,0 3.86719,0.449219 0.0195,0.859375 0.11718,1.660156 -1.25,-0.527344 -2.24609,-0.703125 -0.97656,-0.195313 -1.99219,-0.195313 -1.26953,0 -2.34375,0.390625 -1.07422,0.371094 -1.62109,1.113282 -0.52735,0.722656 -0.52735,1.582031 0,0.46875 0.11719,0.878906 0.11719,0.410156 0.3711,0.839846 0.2539,0.41015 0.64453,0.85937 0.41015,0.42969 1.03515,1.01563 0.64453,0.5664 1.83594,1.58203 1.21094,0.99609 1.79688,1.52344 0.58593,0.50781 0.99609,0.9375 0.42969,0.42968 0.80078,0.95703 0.39063,0.50781 0.625,0.99609 0.23438,0.48828 0.35156,0.9961 0.11719,0.48828 0.11719,0.99609 0,1.23047 -0.72266,2.32422 -0.72265,1.09375 -2.10937,1.71875 -1.36719,0.625 -3.30078,0.625 -0.72266,0 -1.81641,-0.11719 -1.07422,-0.11719 -1.73828,-0.25391 -0.64453,-0.11718 -1.64062,-0.41015 z" />
      <path
         id="path3460"
         d="m 159.59766,113.82268 q -0.0391,-0.9375 -0.15625,-1.66016 1.54296,0.6836 2.91015,0.95703 1.36719,0.27344 2.5,0.27344 1.50391,0 2.5586,-0.42969 1.07421,-0.42968 1.62109,-1.26953 0.54687,-0.83984 0.54687,-1.75781 0,-0.41016 -0.0977,-0.78125 -0.0781,-0.39063 -0.27344,-0.76172 -0.19531,-0.39062 -0.44922,-0.70312 -0.23437,-0.33204 -0.68359,-0.74219 -0.42969,-0.41016 -1.01563,-0.91797 -0.58593,-0.50781 -1.83593,-1.54297 -1.25,-1.03516 -2.07032,-1.77734 -0.80078,-0.76172 -1.34765,-1.52344 -0.52735,-0.78125 -0.76172,-1.425782 -0.21485,-0.644531 -0.21485,-1.308594 0,-1.132812 0.70313,-2.1875 0.72266,-1.074219 2.05078,-1.640625 1.34766,-0.566406 3.39844,-0.566406 1.71875,0 3.86719,0.449219 0.0195,0.859375 0.11718,1.660156 -1.25,-0.527344 -2.24609,-0.703125 -0.97656,-0.195313 -1.99219,-0.195313 -1.26953,0 -2.34375,0.390625 -1.07422,0.371094 -1.62109,1.113282 -0.52735,0.722656 -0.52735,1.582031 0,0.46875 0.11719,0.878906 0.11719,0.410156 0.3711,0.839846 0.2539,0.41015 0.64453,0.85937 0.41015,0.42969 1.03515,1.01563 0.64453,0.5664 1.83594,1.58203 1.21094,0.99609 1.79688,1.52344 0.58593,0.50781 0.99609,0.9375 0.42969,0.42968 0.80078,0.95703 0.39063,0.50781 0.625,0.99609 0.23438,0.48828 0.35156,0.9961 0.11719,0.48828 0.11719,0.99609 0,1.23047 -0.72266,2.32422 -0.72265,1.09375 -2.10937,1.71875 -1.36719,0.625 -3.30078,0.625 -0.72266,0 -1.81641,-0.11719 -1.07422,-0.11719 -1.73828,-0.25391 -0.64453,-0.11718 -1.64062,-0.41015 z" />
      <path
         id="path3462"
         d="m 194.30469,94.057053 q 1.8164,0 3.51562,0.507812 1.69922,0.507813 2.98828,1.738282 1.3086,1.210937 1.99219,3.183593 0.68359,1.97266 0.68359,4.17969 0,2.38281 -0.72265,4.57031 -0.72266,2.1875 -2.05078,3.67188 -1.32813,1.46484 -3.125,2.07031 -1.77735,0.60547 -3.78907,0.60547 -1.40625,0 -2.77343,-0.33203 -1.34766,-0.3125 -2.53907,-1.07422 -1.17187,-0.76172 -2.07031,-1.97266 -0.8789,-1.21094 -1.34765,-2.87109 -0.44922,-1.66016 -0.44922,-3.45703 0,-3.14454 1.17187,-5.742192 1.17188,-2.617188 3.4961,-3.847656 2.34375,-1.230469 5.01953,-1.230469 z m -0.0391,1.09375 q -2.32421,0 -4.3164,1.132812 -1.99219,1.132813 -2.92969,3.457032 -0.9375,2.324223 -0.9375,5.097653 0,1.95313 0.52734,3.67188 0.54688,1.71875 1.73829,2.91015 1.1914,1.17188 2.55859,1.64063 1.38672,0.44922 2.91016,0.44922 1.73828,0 3.26171,-0.56641 1.52344,-0.5664 2.67579,-1.89453 1.17187,-1.32812 1.71875,-3.26172 0.54687,-1.93359 0.54687,-4.10156 0,-2.01172 -0.54687,-3.769532 -0.52735,-1.777344 -1.66016,-2.832031 -1.13281,-1.074219 -2.57813,-1.503907 -1.44531,-0.429687 -2.96875,-0.429687 z" />
      <path
         id="path3464"
         d="m 207.64453,114.19377 0.66406,-11.93359 0.17578,-5.605471 q 0.0391,-1.503906 0.0391,-2.1875 0.50781,0.01953 0.76172,0.01953 0.23437,0 0.74218,-0.01953 l -0.2539,4.453125 q 0.42968,-0.917969 0.70312,-1.386719 0.29297,-0.488281 0.78125,-1.035156 0.48828,-0.546875 1.15235,-1.015625 0.68359,-0.488281 1.62109,-0.800781 0.95703,-0.332031 1.95312,-0.46875 0.9961,-0.15625 1.97266,-0.15625 1.64063,0 3.18359,0.371094 1.54297,0.371093 2.5586,1.289062 1.01562,0.898438 1.38672,2.089844 0.39062,1.171875 0.39062,2.519527 0,0.60547 -0.0586,1.79688 l -0.41016,8.88672 -0.0781,3.18359 q -0.39063,-0.0195 -0.76172,-0.0195 -0.3711,0 -0.74219,0.0195 0.19531,-2.4414 0.3125,-4.66797 l 0.27344,-5 q 0.15625,-2.77343 0.15625,-4.0039 0,-1.289066 -0.3711,-2.304691 -0.37109,-1.015625 -1.28906,-1.679687 -0.89844,-0.683594 -2.14844,-0.976563 -1.25,-0.3125 -2.57812,-0.3125 -1.85547,0 -3.28125,0.507813 -1.34766,0.488281 -2.36328,1.445312 -1.01563,0.9375 -1.66016,2.382813 -0.48828,1.054683 -0.74219,2.949223 -0.23437,1.64062 -0.39062,5.37109 -0.13672,3.71094 -0.13672,6.28906 -0.50781,-0.0195 -0.78125,-0.0195 -0.27344,0 -0.78125,0.0195 z" />
      <path
         id="path3466"
         d="m 240.94531,114.19377 q 0.46875,-8.41797 0.70313,-15.722655 0.23437,-7.304687 0.23437,-10.9375 0.50781,0.01953 0.85938,0.01953 0.35156,0 0.83984,-0.01953 l -0.52734,12.480465 18.16406,0 0.37109,-9.804683 q 0.0391,-0.820313 0.0391,-2.675782 0.50781,0.01953 0.85937,0.01953 0.35156,0 0.83984,-0.01953 -0.74218,12.109375 -1.01562,26.660155 -0.48828,-0.0195 -0.85938,-0.0195 -0.39062,0 -0.8789,0.0195 0.48828,-6.79687 0.60547,-12.98828 l -18.16407,0 -0.3125,9.58984 -0.0391,3.39844 q -0.50781,-0.0195 -0.85937,-0.0195 -0.3711,0 -0.85938,0.0195 z" />
      <path
         id="path3468"
         d="m 269.40234,89.467209 0.0586,-1.933594 q 0.48828,0.01953 0.99609,0.01953 0.50781,0 0.99609,-0.01953 l -0.0586,1.933594 q -0.48828,-0.03906 -0.99609,-0.03906 -0.50782,0 -0.9961,0.03906 z m -0.70312,24.726561 q 0.21484,-2.92969 0.48828,-10.21484 0.29297,-7.285158 0.29297,-9.511721 0.50781,0.01953 0.78125,0.01953 0.29297,0 0.80078,-0.01953 -0.27344,3.710938 -0.54688,10.117191 -0.2539,6.40625 -0.2539,9.60937 -0.50781,-0.0195 -0.78125,-0.0195 -0.27344,0 -0.78125,0.0195 z" />
      <path
         id="path3470"
         d="m 277.07812,121.32268 q 2.57813,0.74219 4.25782,0.99609 1.67968,0.25391 3.08593,0.25391 1.66016,0 3.08594,-0.42969 1.3086,-0.37109 2.22656,-1.03516 0.82032,-0.60546 1.26954,-1.34765 0.52734,-0.87891 0.78125,-2.1875 0.27343,-1.3086 0.33203,-2.8125 0.13672,-2.42188 0.19531,-5.46875 -0.39063,0.9375 -0.68359,1.48437 -0.27344,0.52735 -0.78125,1.13282 -0.50782,0.58593 -1.19141,1.07421 -0.66406,0.46875 -1.54297,0.85938 -0.85937,0.37109 -1.91406,0.58594 -1.05469,0.21484 -2.1875,0.21484 -1.81641,0 -3.37891,-0.46875 -1.54297,-0.46875 -2.77344,-1.58203 -1.21093,-1.11328 -1.83593,-2.85156 -0.625,-1.75782 -0.625,-3.69141 0,-2.63672 0.9375,-5.05859 0.9375,-2.421878 2.65625,-3.984378 1.73828,-1.582032 4.0039,-2.265625 2.26563,-0.683594 4.90235,-0.683594 2.67578,0 6.48437,0.683594 l -0.19531,2.246093 q -0.0586,0.644532 -0.11719,1.679688 l -0.44922,8.945312 -0.21484,8.18359 q -0.0781,1.46485 -0.39063,2.59766 -0.33203,1.21094 -1.01562,2.16797 -0.68359,0.95703 -1.71875,1.62109 -1.03516,0.66407 -2.61719,1.05469 -1.71875,0.42969 -3.86719,0.42969 -1.58203,0 -3.08593,-0.17578 -1.50391,-0.15625 -3.4961,-0.625 -0.0391,-0.80078 -0.13672,-1.54297 z m 15.74219,-25.664065 q -1.85547,-0.351562 -2.96875,-0.429687 -1.11328,-0.07813 -1.97265,-0.07813 -2.2461,0 -4.16016,0.507812 -1.91406,0.507813 -3.51563,1.914063 -1.58203,1.40625 -2.46093,3.613282 -0.87891,2.20703 -0.87891,4.57031 0,2.26563 0.80078,4.10156 0.82031,1.83594 2.51953,2.77344 1.71875,0.91797 3.78907,0.91797 1.40625,0 2.61718,-0.3125 0.9375,-0.23437 1.75782,-0.74219 0.83984,-0.52734 1.60156,-1.38672 0.76172,-0.85937 1.32812,-2.01171 0.58594,-1.17188 0.83985,-2.38282 0.33203,-1.69922 0.46875,-4.35547 l 0.23437,-6.699215 z" />
      <path
         id="path3472"
         d="m 299.40234,114.19377 0.58594,-12.73437 q 0.0586,-1.855472 0.23438,-9.570316 l 0.11718,-4.355469 q 0.44922,0.01953 0.74219,0.01953 0.33203,0 0.76172,-0.01953 l -0.52734,11.40625 q 0.44921,-0.917968 0.76171,-1.445312 0.33204,-0.527344 0.87891,-1.074219 0.54688,-0.566406 1.15234,-0.957031 0.625,-0.410156 1.38672,-0.703125 0.78125,-0.3125 1.81641,-0.507813 1.05469,-0.195312 2.20703,-0.195312 1.69922,0 3.22266,0.371094 1.52343,0.351562 2.59765,1.210937 1.07422,0.839844 1.48438,2.03125 0.41015,1.191406 0.41015,2.382816 0,0.39062 -0.0195,1.09375 -0.0391,1.07422 -0.15625,2.91015 l -0.3125,7.94922 q -0.0391,0.76172 -0.0781,2.1875 -0.50781,-0.0195 -0.78125,-0.0195 -0.29297,0 -0.80078,0.0195 0.23437,-2.51953 0.35156,-5.07812 l 0.27344,-4.76563 q 0.13672,-2.20703 0.13672,-3.80859 0,-1.855471 -0.70313,-3.027346 -0.68359,-1.171875 -2.32422,-1.757812 -1.62109,-0.605469 -3.4375,-0.605469 -1.21094,0 -2.38281,0.273437 -1.09375,0.253907 -1.91406,0.683594 -0.6836,0.351563 -1.25,0.878906 -0.60547,0.566407 -1.09375,1.328125 -0.52735,0.878907 -0.87891,1.953125 -0.33203,0.99609 -0.50781,2.67578 -0.13672,1.3086 -0.27344,5.11719 l -0.15625,6.13281 q -0.50781,-0.0195 -0.76172,-0.0195 -0.2539,0 -0.76172,0.0195 z" />
      <path
         id="path3474"
         d="m 332.74219,114.19377 q 0.46875,-8.41797 0.70312,-15.722655 0.23438,-7.304687 0.23438,-10.9375 0.50781,0.01953 0.85937,0.01953 0.35156,0 0.83985,-0.01953 l -0.52735,12.480465 18.16406,0 0.3711,-9.804683 q 0.0391,-0.820313 0.0391,-2.675782 0.50781,0.01953 0.85938,0.01953 0.35156,0 0.83984,-0.01953 -0.74219,12.109375 -1.01563,26.660155 -0.48828,-0.0195 -0.85937,-0.0195 -0.39063,0 -0.87891,0.0195 0.48828,-6.79687 0.60547,-12.98828 l -18.16406,0 -0.3125,9.58984 -0.0391,3.39844 q -0.50782,-0.0195 -0.85938,-0.0195 -0.37109,0 -0.85937,0.0195 z" />
      <path
         id="path3476"
         d="m 375.10547,112.29924 q -0.15625,0.72266 -0.23438,1.46484 -1.62109,0.46875 -2.91015,0.64454 -1.28907,0.19531 -2.63672,0.19531 -2.34375,0 -4.16016,-0.625 -1.79687,-0.64453 -3.08594,-2.10938 -1.28906,-1.48437 -1.83593,-3.32031 -0.54688,-1.83594 -0.54688,-3.90625 0,-2.71484 0.9375,-5.078125 0.9375,-2.382812 3.08594,-3.945312 2.14844,-1.5625 5.33203,-1.5625 2.1875,0 3.96484,0.820312 1.77735,0.800782 2.75391,2.636719 0.99609,1.835938 0.99609,4.355466 0,0.46875 -0.0391,0.89844 l -15.44922,0.0195 q -0.0976,1.26953 -0.0976,1.91406 0,1.85547 0.54687,3.59375 0.54688,1.73829 1.64063,2.91016 1.11328,1.17188 2.65625,1.73828 1.54297,0.56641 3.26172,0.56641 2.61718,0 5.82031,-1.21094 z m -13.65235,-10.58594 13.88672,0.0195 q -0.0195,-1.34765 -0.15625,-2.070308 -0.13672,-0.722657 -0.50781,-1.484375 -0.37109,-0.761719 -0.89844,-1.308594 -0.50781,-0.566406 -1.21093,-0.9375 -0.6836,-0.390625 -1.54297,-0.585938 -0.85938,-0.195312 -1.79688,-0.195312 -1.03515,0 -2.03125,0.234375 -0.99609,0.234375 -1.8164,0.644531 -0.82032,0.410156 -1.54297,1.054688 -0.70313,0.625 -1.17188,1.367187 -0.44922,0.742188 -0.70312,1.425781 -0.23438,0.664065 -0.50782,1.835935 z" />
      <path
         id="path3478"
         d="m 395.26172,112.29924 q -0.15625,0.72266 -0.23438,1.46484 -1.62109,0.46875 -2.91015,0.64454 -1.28907,0.19531 -2.63672,0.19531 -2.34375,0 -4.16016,-0.625 -1.79687,-0.64453 -3.08594,-2.10938 -1.28906,-1.48437 -1.83593,-3.32031 -0.54688,-1.83594 -0.54688,-3.90625 0,-2.71484 0.9375,-5.078125 0.9375,-2.382812 3.08594,-3.945312 2.14844,-1.5625 5.33203,-1.5625 2.1875,0 3.96484,0.820312 1.77735,0.800782 2.75391,2.636719 0.99609,1.835938 0.99609,4.355466 0,0.46875 -0.0391,0.89844 l -15.44922,0.0195 q -0.0976,1.26953 -0.0976,1.91406 0,1.85547 0.54687,3.59375 0.54688,1.73829 1.64063,2.91016 1.11328,1.17188 2.65625,1.73828 1.54297,0.56641 3.26172,0.56641 2.61718,0 5.82031,-1.21094 z m -13.65235,-10.58594 13.88672,0.0195 q -0.0195,-1.34765 -0.15625,-2.070308 -0.13672,-0.722657 -0.50781,-1.484375 -0.37109,-0.761719 -0.89844,-1.308594 -0.50781,-0.566406 -1.21093,-0.9375 -0.6836,-0.390625 -1.54297,-0.585938 -0.85938,-0.195312 -1.79688,-0.195312 -1.03515,0 -2.03125,0.234375 -0.99609,0.234375 -1.8164,0.644531 -0.82032,0.410156 -1.54297,1.054688 -0.70313,0.625 -1.17188,1.367187 -0.44922,0.742188 -0.70312,1.425781 -0.23438,0.664065 -0.50782,1.835935 z" />
      <path
         id="path3480"
         d="m 400.67187,114.19377 q 0.89844,-16.289061 1.05469,-26.660155 0.50781,0.01953 0.80078,0.01953 0.29297,0 0.80078,-0.01953 l -0.48828,9.511719 -0.5664,17.148436 q -0.50782,-0.0195 -0.80078,-0.0195 -0.29297,0 -0.80079,0.0195 z" />
      <path
         id="path3482"
         d="m 406.86328,113.82268 q -0.0391,-0.9375 -0.15625,-1.66016 1.54297,0.6836 2.91016,0.95703 1.36718,0.27344 2.5,0.27344 1.5039,0 2.55859,-0.42969 1.07422,-0.42968 1.62109,-1.26953 0.54688,-0.83984 0.54688,-1.75781 0,-0.41016 -0.0977,-0.78125 -0.0781,-0.39063 -0.27343,-0.76172 -0.19532,-0.39062 -0.44922,-0.70312 -0.23438,-0.33204 -0.6836,-0.74219 -0.42968,-0.41016 -1.01562,-0.91797 -0.58594,-0.50781 -1.83594,-1.54297 -1.25,-1.03516 -2.07031,-1.77734 -0.80078,-0.76172 -1.34766,-1.52344 -0.52734,-0.78125 -0.76172,-1.425782 -0.21484,-0.644531 -0.21484,-1.308594 0,-1.132812 0.70312,-2.1875 0.72266,-1.074219 2.05079,-1.640625 1.34765,-0.566406 3.39843,-0.566406 1.71875,0 3.86719,0.449219 0.0195,0.859375 0.11719,1.660156 -1.25,-0.527344 -2.2461,-0.703125 -0.97656,-0.195313 -1.99218,-0.195313 -1.26953,0 -2.34375,0.390625 -1.07422,0.371094 -1.6211,1.113282 -0.52734,0.722656 -0.52734,1.582031 0,0.46875 0.11719,0.878906 0.11718,0.410156 0.37109,0.839846 0.25391,0.41015 0.64453,0.85937 0.41016,0.42969 1.03516,1.01563 0.64453,0.5664 1.83594,1.58203 1.21093,0.99609 1.79687,1.52344 0.58594,0.50781 0.99609,0.9375 0.42969,0.42968 0.80079,0.95703 0.39062,0.50781 0.625,0.99609 0.23437,0.48828 0.35156,0.9961 0.11719,0.48828 0.11719,0.99609 0,1.23047 -0.72266,2.32422 -0.72266,1.09375 -2.10938,1.71875 -1.36718,0.625 -3.30078,0.625 -0.72265,0 -1.8164,-0.11719 -1.07422,-0.11719 -1.73828,-0.25391 -0.64454,-0.11718 -1.64063,-0.41015 z" />
    </g>
  </g>
</svg>
